# xmcd
#
# Track frame offsets:
#	150
#	13950
#	31154
#	52165
#	69304
#	91985
#	110613
#	129462
#	143509
#	160147
#	177422
#	196977
#
# Disc length: 2832 seconds
# Revision: 0
# Processed by: cddbd v1.5.2PL0 Copyright (c) Steve Scherf et al.
# Submitted via: dBpowerAMP V12.0
#
DISCID=a20b0e0c
DTITLE=Shaun Murphy - Loretta
DYEAR=2015
DGENRE=Blues Female
TTITLE0=Don't Lie To Me
TTITLE1=I Pity The Fool
TTITLE2=Kiss Me Like Whiskey
TTITLE3=Loretta
TTITLE4=Strange Life
TTITLE5=Hard Working Man
TTITLE6=Big Train Stops At Memphis
TTITLE7=Should Be Hard To Love You
TTITLE8=Careful They Say
TTITLE9=Go Away
TTITLE10=24 Hours From Memphis
TTITLE11=How Strong Is A Woman
EXTD=
EXTT0=
EXTT1=
EXTT2=
EXTT3=
EXTT4=
EXTT5=
EXTT6=
EXTT7=
EXTT8=
EXTT9=
EXTT10=
EXTT11=
PLAYORDER=
